<svg width="69" height="18" viewBox="0 0 69 18" fill="none" xmlns="http://www.w3.org/2000/svg">
<rect width="69" height="18" rx="4" fill="#DC143C"/>
<path d="M23.9045 5.392C24.9925 5.392 25.8525 5.544 26.4845 5.848C27.1245 6.144 27.6085 6.476 27.9365 6.844C28.2005 7.148 28.4165 7.5 28.5845 7.9C28.7525 8.292 28.8365 8.764 28.8365 9.316C28.8365 9.724 28.7445 10.152 28.5605 10.6C28.3765 11.04 28.1365 11.396 27.8405 11.668C27.5285 11.964 27.2325 12.204 26.9525 12.388C26.6805 12.572 26.3085 12.724 25.8365 12.844C25.3725 12.956 24.7805 13.012 24.0605 13.012C23.5165 13.012 23.0245 12.952 22.5845 12.832C22.1445 12.704 21.9245 12.492 21.9245 12.196C21.9245 12.076 21.9765 11.984 22.0805 11.92C22.1925 11.848 22.3125 11.812 22.4405 11.812C22.5125 11.812 22.5605 11.816 22.5845 11.824C22.6405 11.296 22.6685 10.736 22.6685 10.144C22.6685 9.48 22.6525 8.932 22.6205 8.5C22.5885 8.06 22.5445 7.624 22.4885 7.192C22.4805 7.136 22.4605 6.98 22.4285 6.724C22.4045 6.468 22.3925 6.208 22.3925 5.944C22.3925 5.776 22.4765 5.636 22.6445 5.524C22.8125 5.404 22.9845 5.344 23.1605 5.344C23.2645 5.344 23.4045 5.352 23.5805 5.368C23.7245 5.384 23.8325 5.392 23.9045 5.392ZM23.7485 11.884C23.9405 11.916 24.1925 11.932 24.5045 11.932C25.0325 11.932 25.5325 11.824 26.0045 11.608C26.4765 11.384 26.8565 11.076 27.1445 10.684C27.4325 10.284 27.5765 9.824 27.5765 9.304C27.5765 8.76 27.4805 8.296 27.2885 7.912C27.0965 7.528 26.8005 7.212 26.4005 6.964C26.1045 6.78 25.7405 6.648 25.3085 6.568C24.8765 6.48 24.3565 6.436 23.7485 6.436C23.7485 6.628 23.7605 6.868 23.7845 7.156C23.7845 7.252 23.7925 7.42 23.8085 7.66C23.8565 8.588 23.8805 9.336 23.8805 9.904C23.8805 10.728 23.8365 11.388 23.7485 11.884ZM30.5178 5.296C30.7978 5.32 31.0418 5.396 31.2498 5.524C31.4578 5.644 31.5618 5.828 31.5618 6.076C31.5618 6.26 31.4738 6.408 31.2978 6.52C31.1298 6.624 30.9258 6.676 30.6858 6.676C30.4538 6.676 30.2938 6.616 30.2058 6.496C30.1178 6.376 30.0738 6.252 30.0738 6.124C30.0738 5.884 30.0978 5.684 30.1458 5.524C30.2018 5.364 30.3258 5.288 30.5178 5.296ZM31.4778 10.612V10.96C31.4778 11.272 31.4858 11.568 31.5018 11.848C31.5258 12.12 31.5538 12.396 31.5858 12.676C31.5778 12.756 31.5178 12.84 31.4058 12.928C31.2938 13.008 31.1938 13.048 31.1058 13.048C30.9538 13.048 30.7978 13.02 30.6378 12.964C30.4858 12.9 30.3938 12.824 30.3618 12.736C30.3138 12.48 30.2898 12.252 30.2898 12.052C30.2898 11.396 30.2698 10.66 30.2298 9.844C30.1978 9.124 30.1818 8.62 30.1818 8.332C30.1818 8.188 30.2538 8.064 30.3978 7.96C30.5418 7.856 30.6938 7.804 30.8538 7.804C31.0858 7.804 31.2458 7.856 31.3338 7.96C31.4298 8.064 31.4778 8.228 31.4778 8.452V10.612ZM32.9761 8.848C32.8641 8.832 32.7721 8.784 32.7001 8.704C32.6361 8.624 32.6041 8.528 32.6041 8.416C32.6041 8.36 32.6161 8.3 32.6401 8.236C32.6721 8.172 32.7161 8.116 32.7721 8.068C32.8761 7.964 33.1561 7.912 33.6121 7.912C33.6761 7.6 33.7081 7.284 33.7081 6.964C33.7081 6.844 33.7041 6.74 33.6961 6.652C33.6881 6.564 33.6841 6.496 33.6841 6.448C33.6841 6.272 33.7481 6.14 33.8761 6.052C34.0121 5.964 34.1641 5.92 34.3321 5.92C34.5401 5.92 34.6801 5.972 34.7521 6.076C34.8321 6.18 34.8721 6.372 34.8721 6.652C34.8721 7.068 34.8361 7.476 34.7641 7.876C34.8921 7.876 35.0681 7.868 35.2921 7.852C35.5961 7.836 35.8161 7.828 35.9521 7.828C36.0881 7.828 36.2041 7.864 36.3001 7.936C36.4041 8 36.4561 8.092 36.4561 8.212C36.4561 8.524 36.3161 8.708 36.0361 8.764C35.7401 8.836 35.2801 8.88 34.6561 8.896C34.6321 9.208 34.6201 9.548 34.6201 9.916C34.6201 10.492 34.6561 10.964 34.7281 11.332C34.7761 11.588 34.8561 11.776 34.9681 11.896C35.0881 12.008 35.2641 12.064 35.4961 12.064C35.6321 12.064 35.7721 12.028 35.9161 11.956C36.0121 11.9 36.1001 11.872 36.1801 11.872C36.2921 11.872 36.3721 11.908 36.4201 11.98C36.4761 12.052 36.5041 12.148 36.5041 12.268C36.5041 12.492 36.3841 12.68 36.1441 12.832C35.9041 12.976 35.5961 13.048 35.2201 13.048C34.9881 13.048 34.7521 12.992 34.5121 12.88C34.2801 12.768 34.0841 12.628 33.9241 12.46C33.9001 12.436 33.8561 12.344 33.7921 12.184C33.7281 12.024 33.6721 11.852 33.6241 11.668C33.5441 11.292 33.5041 10.764 33.5041 10.084C33.5041 9.788 33.5201 9.392 33.5521 8.896L32.9761 8.848ZM42.2158 9.148C42.2798 9.26 42.3318 9.424 42.3718 9.64C42.4118 9.848 42.4318 10.036 42.4318 10.204C42.4318 10.42 42.4078 10.66 42.3598 10.924C42.3118 11.188 42.2678 11.392 42.2278 11.536C41.6758 12.544 40.8598 13.048 39.7798 13.048C39.3798 13.048 38.9718 12.916 38.5558 12.652C38.1398 12.388 37.8518 12.084 37.6918 11.74C37.4758 11.06 37.3678 10.624 37.3678 10.432C37.3678 10.112 37.4358 9.772 37.5718 9.412C37.7158 9.052 37.8958 8.74 38.1118 8.476C38.2558 8.292 38.5038 8.136 38.8558 8.008C39.2078 7.872 39.5278 7.804 39.8158 7.804C40.3758 7.804 40.8478 7.912 41.2318 8.128C41.6238 8.336 41.9518 8.676 42.2158 9.148ZM41.1718 11.08C41.2118 11 41.2318 10.732 41.2318 10.276C41.2318 10.044 41.1878 9.816 41.0998 9.592C41.0198 9.368 40.8998 9.176 40.7398 9.016C40.7238 9 40.6798 8.976 40.6078 8.944C40.5358 8.904 40.4358 8.868 40.3078 8.836C40.1878 8.796 40.0478 8.776 39.8878 8.776C39.4398 8.776 39.1118 8.956 38.9038 9.316C38.6958 9.676 38.5918 10.084 38.5918 10.54C38.5918 10.612 38.6158 10.76 38.6638 10.984C38.7118 11.208 38.7478 11.352 38.7718 11.416C38.8358 11.528 38.9638 11.66 39.1558 11.812C39.3558 11.956 39.5718 12.028 39.8038 12.028C40.1638 12.028 40.4478 11.944 40.6558 11.776C40.8718 11.6 41.0438 11.368 41.1718 11.08ZM44.9256 11.14C44.9256 11.444 44.9696 11.68 45.0576 11.848C45.1536 12.008 45.2736 12.088 45.4176 12.088C45.4976 12.088 45.5736 12.084 45.6456 12.076C45.7176 12.06 45.7896 12.052 45.8616 12.052C45.9416 12.052 46.0096 12.092 46.0656 12.172C46.1296 12.252 46.1616 12.34 46.1616 12.436C46.1616 12.628 46.0696 12.78 45.8856 12.892C45.7096 12.996 45.4696 13.048 45.1656 13.048C44.9496 13.048 44.7296 12.984 44.5056 12.856C44.2896 12.72 44.1096 12.512 43.9656 12.232C43.8216 11.944 43.7496 11.588 43.7496 11.164C43.7496 10.252 43.7656 9.48 43.7976 8.848C43.8376 8.096 43.8576 7.148 43.8576 6.004C43.8576 5.644 43.8776 5.392 43.9176 5.248C43.9656 5.136 44.0416 5.052 44.1456 4.996C44.2576 4.932 44.3736 4.9 44.4936 4.9C44.6136 4.9 44.7176 4.92 44.8056 4.96C44.9016 5 44.9656 5.064 44.9976 5.152C45.0296 5.248 45.0496 5.344 45.0576 5.44C45.0736 5.528 45.0816 5.656 45.0816 5.824C45.0816 6.152 45.0696 6.468 45.0456 6.772C45.0296 7.14 45.0216 7.408 45.0216 7.576C44.9576 8.984 44.9256 10.172 44.9256 11.14ZM52.428 12.424C52.428 12.6 52.332 12.748 52.14 12.868C51.948 12.988 51.772 13.048 51.612 13.048C51.316 13.048 51.076 13.012 50.892 12.94C50.716 12.86 50.548 12.716 50.388 12.508C50.188 12.692 49.908 12.832 49.548 12.928C49.188 13.016 48.856 13.06 48.552 13.06C48.056 13.06 47.644 12.928 47.316 12.664C46.996 12.392 46.836 11.996 46.836 11.476C46.836 11.252 46.904 11.028 47.04 10.804C47.176 10.572 47.344 10.388 47.544 10.252C47.76 10.108 48.004 10.012 48.276 9.964C48.548 9.908 48.864 9.88 49.224 9.88C49.392 9.88 49.592 9.912 49.824 9.976C50.056 10.04 50.24 10.108 50.376 10.18V9.988C50.376 9.556 50.268 9.26 50.052 9.1C49.844 8.932 49.508 8.848 49.044 8.848C48.9 8.848 48.768 8.872 48.648 8.92C48.536 8.96 48.404 9.02 48.252 9.1C48.108 9.18 47.972 9.22 47.844 9.22C47.732 9.22 47.624 9.176 47.52 9.088C47.416 8.992 47.364 8.892 47.364 8.788C47.364 8.452 47.572 8.208 47.988 8.056C48.412 7.896 48.844 7.816 49.284 7.816C49.508 7.816 49.764 7.864 50.052 7.96C50.34 8.048 50.584 8.172 50.784 8.332C51.024 8.532 51.208 8.772 51.336 9.052C51.472 9.332 51.54 9.636 51.54 9.964C51.54 10.068 51.532 10.224 51.516 10.432C51.5 10.656 51.492 10.848 51.492 11.008L51.48 11.332C51.464 11.508 51.456 11.648 51.456 11.752C51.456 11.848 51.488 11.932 51.552 12.004C51.624 12.068 51.708 12.1 51.804 12.1L52.14 12.088C52.228 12.088 52.296 12.124 52.344 12.196C52.4 12.26 52.428 12.336 52.428 12.424ZM48.552 12.112C48.896 12.112 49.184 12.076 49.416 12.004C49.648 11.932 49.928 11.8 50.256 11.608C50.288 11.472 50.308 11.292 50.316 11.068C49.876 10.86 49.512 10.756 49.224 10.756C48.952 10.756 48.732 10.768 48.564 10.792C48.396 10.808 48.244 10.876 48.108 10.996C47.972 11.116 47.904 11.308 47.904 11.572C47.904 11.724 47.976 11.852 48.12 11.956C48.272 12.06 48.416 12.112 48.552 12.112ZM54.1267 13.048C53.9667 13.048 53.8307 13.02 53.7187 12.964C53.6067 12.908 53.5387 12.848 53.5147 12.784C53.4267 12.464 53.3827 12.044 53.3827 11.524C53.3827 10.564 53.3987 9.784 53.4307 9.184C53.4627 8.472 53.4787 7.788 53.4787 7.132C53.4787 6.94 53.4547 6.66 53.4067 6.292C53.3987 6.228 53.3867 6.112 53.3707 5.944C53.3547 5.776 53.3467 5.62 53.3467 5.476C53.3467 5.3 53.4067 5.16 53.5267 5.056C53.6547 4.952 53.8187 4.9 54.0187 4.9C54.1787 4.9 54.3067 4.952 54.4027 5.056C54.5067 5.152 54.5587 5.284 54.5587 5.452C54.5587 5.708 54.5667 6.068 54.5827 6.532C54.5987 6.964 54.6067 7.288 54.6067 7.504C54.6067 7.744 54.5987 8.064 54.5827 8.464C54.5667 8.704 54.5587 8.88 54.5587 8.992C54.5587 9.344 54.5627 9.636 54.5707 9.868C54.8667 9.572 55.2547 9.224 55.7347 8.824C56.2147 8.424 56.5867 8.144 56.8507 7.984C57.1307 7.816 57.3147 7.732 57.4027 7.732C57.5707 7.732 57.7147 7.768 57.8347 7.84C57.9547 7.912 58.0147 8.016 58.0147 8.152C58.0147 8.288 57.9947 8.396 57.9547 8.476C57.9147 8.556 57.8427 8.636 57.7387 8.716L56.3827 9.712C56.5187 9.768 56.6467 9.892 56.7667 10.084C56.8947 10.276 57.0467 10.536 57.2227 10.864C57.4227 11.24 57.5867 11.52 57.7147 11.704C57.8507 11.888 57.9867 11.98 58.1227 11.98L58.4227 11.968C58.4787 11.968 58.5267 12 58.5667 12.064C58.6147 12.128 58.6387 12.22 58.6387 12.34C58.6387 12.524 58.5467 12.672 58.3627 12.784C58.1867 12.896 57.9867 12.952 57.7627 12.952C57.4507 12.952 57.1747 12.832 56.9347 12.592C56.6947 12.344 56.4667 12.012 56.2507 11.596L55.9867 11.068C55.8747 10.844 55.7867 10.684 55.7227 10.588C55.6667 10.492 55.5987 10.428 55.5187 10.396L54.5587 11.164L54.6067 12.472C54.6067 12.68 54.5507 12.828 54.4387 12.916C54.3347 13.004 54.2307 13.048 54.1267 13.048Z" fill="white"/>
<ellipse cx="11.175" cy="9" rx="6.175" ry="6" fill="white"/>
<path d="M14 6L8 12" stroke="#DC143C" stroke-width="2" stroke-linecap="round" stroke-linejoin="round"/>
<path d="M8 6L14 12" stroke="#DC143C" stroke-width="2" stroke-linecap="round" stroke-linejoin="round"/>
</svg>
