<svg width="76" height="18" viewBox="0 0 76 18" fill="none" xmlns="http://www.w3.org/2000/svg">
<rect width="76" height="18" rx="4" fill="#28A745"/>
<path d="M15.3965 8.50977C15.3965 11.7207 12.7715 14.3223 9.58397 14.3223C6.37303 14.3223 3.77147 11.7207 3.77147 8.50977C3.77147 5.32227 6.37303 2.69727 9.58397 2.69727C12.7715 2.69727 15.3965 5.32227 15.3965 8.50977ZM8.90428 11.6035L13.2168 7.29102C13.3574 7.15039 13.3574 6.89258 13.2168 6.75195L12.6777 6.23633C12.5371 6.07227 12.3027 6.07227 12.1621 6.23633L8.64647 9.75195L6.98241 8.11133C6.84178 7.94727 6.60741 7.94727 6.46678 8.11133L5.92772 8.62695C5.78709 8.76758 5.78709 9.02539 5.92772 9.16602L8.36522 11.6035C8.50584 11.7441 8.76366 11.7441 8.90428 11.6035Z" fill="white"/>
<path d="M25.0197 4.40177C26.1077 4.40177 26.9677 4.55377 27.5997 4.85777C28.2397 5.15377 28.7237 5.48577 29.0517 5.85377C29.3157 6.15777 29.5317 6.50977 29.6997 6.90977C29.8677 7.30177 29.9517 7.77377 29.9517 8.32577C29.9517 8.73377 29.8597 9.16177 29.6757 9.60977C29.4917 10.0498 29.2517 10.4058 28.9557 10.6778C28.6437 10.9738 28.3477 11.2138 28.0677 11.3978C27.7957 11.5818 27.4237 11.7338 26.9517 11.8538C26.4877 11.9658 25.8957 12.0218 25.1757 12.0218C24.6317 12.0218 24.1397 11.9618 23.6997 11.8418C23.2597 11.7138 23.0397 11.5018 23.0397 11.2058C23.0397 11.0858 23.0917 10.9938 23.1957 10.9298C23.3077 10.8578 23.4277 10.8218 23.5557 10.8218C23.6277 10.8218 23.6757 10.8258 23.6997 10.8338C23.7557 10.3058 23.7837 9.74577 23.7837 9.15377C23.7837 8.48977 23.7677 7.94177 23.7357 7.50977C23.7037 7.06977 23.6597 6.63377 23.6037 6.20177C23.5957 6.14577 23.5757 5.98977 23.5437 5.73377C23.5197 5.47777 23.5077 5.21777 23.5077 4.95377C23.5077 4.78577 23.5917 4.64577 23.7597 4.53377C23.9277 4.41377 24.0997 4.35377 24.2757 4.35377C24.3797 4.35377 24.5197 4.36177 24.6957 4.37777C24.8397 4.39377 24.9477 4.40177 25.0197 4.40177ZM24.8637 10.8938C25.0557 10.9258 25.3077 10.9418 25.6197 10.9418C26.1477 10.9418 26.6477 10.8338 27.1197 10.6178C27.5917 10.3938 27.9717 10.0858 28.2597 9.69377C28.5477 9.29377 28.6917 8.83377 28.6917 8.31377C28.6917 7.76977 28.5957 7.30577 28.4037 6.92177C28.2117 6.53777 27.9157 6.22177 27.5157 5.97377C27.2197 5.78977 26.8557 5.65777 26.4237 5.57777C25.9917 5.48977 25.4717 5.44577 24.8637 5.44577C24.8637 5.63777 24.8757 5.87777 24.8997 6.16577C24.8997 6.26177 24.9077 6.42977 24.9237 6.66977C24.9717 7.59777 24.9957 8.34577 24.9957 8.91377C24.9957 9.73777 24.9517 10.3978 24.8637 10.8938ZM31.633 4.30577C31.913 4.32977 32.157 4.40577 32.365 4.53377C32.573 4.65377 32.677 4.83777 32.677 5.08577C32.677 5.26977 32.589 5.41777 32.413 5.52977C32.245 5.63377 32.041 5.68577 31.801 5.68577C31.569 5.68577 31.409 5.62577 31.321 5.50576C31.233 5.38577 31.189 5.26177 31.189 5.13377C31.189 4.89377 31.213 4.69377 31.261 4.53377C31.317 4.37377 31.441 4.29777 31.633 4.30577ZM32.593 9.62177V9.96977C32.593 10.2818 32.601 10.5778 32.617 10.8578C32.641 11.1298 32.669 11.4058 32.701 11.6858C32.693 11.7658 32.633 11.8498 32.521 11.9378C32.409 12.0178 32.309 12.0578 32.221 12.0578C32.069 12.0578 31.913 12.0298 31.753 11.9738C31.601 11.9098 31.509 11.8338 31.477 11.7458C31.429 11.4898 31.405 11.2618 31.405 11.0618C31.405 10.4058 31.385 9.66977 31.345 8.85377C31.313 8.13377 31.297 7.62977 31.297 7.34177C31.297 7.19777 31.369 7.07377 31.513 6.96977C31.657 6.86577 31.809 6.81377 31.969 6.81377C32.201 6.81377 32.361 6.86577 32.449 6.96977C32.545 7.07377 32.593 7.23777 32.593 7.46177V9.62177ZM37.4513 9.30977C37.5153 9.34977 37.6393 9.42577 37.8233 9.53777C38.0153 9.64177 38.1433 9.76577 38.2073 9.90977C38.2713 10.0538 38.3033 10.2538 38.3033 10.5098C38.3033 10.7978 38.2193 11.0538 38.0513 11.2778C37.8833 11.4938 37.6673 11.6618 37.4033 11.7818C37.2113 11.8698 36.9753 11.9378 36.6953 11.9858C36.4233 12.0338 36.2073 12.0578 36.0473 12.0578C35.8873 12.0578 35.6793 12.0338 35.4233 11.9858C35.1753 11.9378 35.0033 11.8938 34.9073 11.8538C34.6593 11.7098 34.4433 11.5338 34.2593 11.3258C34.0833 11.1178 33.9953 10.9058 33.9953 10.6898C33.9953 10.5298 34.0473 10.4058 34.1513 10.3178C34.2553 10.2218 34.3913 10.1738 34.5593 10.1738C34.6393 10.1738 34.7233 10.2058 34.8113 10.2698C34.8993 10.3258 34.9593 10.3858 34.9913 10.4498C35.0793 10.6578 35.2273 10.8138 35.4353 10.9178C35.6433 11.0218 35.8553 11.0738 36.0713 11.0738C36.3513 11.0738 36.6113 11.0298 36.8513 10.9418C37.0913 10.8458 37.2113 10.7178 37.2113 10.5578C37.2113 10.4858 37.1913 10.4298 37.1513 10.3898C37.1193 10.3418 37.0713 10.2938 37.0073 10.2458C36.8953 10.1658 36.7273 10.1018 36.5033 10.0538C36.2793 9.99777 36.1353 9.96177 36.0713 9.94577C35.7433 9.87377 35.4233 9.76577 35.1113 9.62177C34.7993 9.46977 34.5513 9.28977 34.3673 9.08177C34.1833 8.87377 34.0913 8.60577 34.0913 8.27777C34.0913 8.06177 34.1713 7.83777 34.3313 7.60577C34.4913 7.36577 34.6713 7.19777 34.8713 7.10177C35.0153 7.04577 35.2553 6.98577 35.5913 6.92177C35.9353 6.85777 36.1673 6.82577 36.2873 6.82577C36.4713 6.82577 36.6713 6.84577 36.8873 6.88577C37.1033 6.91777 37.2673 6.97377 37.3793 7.05377C37.5953 7.18177 37.7713 7.31777 37.9073 7.46177C38.0433 7.59777 38.1113 7.75377 38.1113 7.92977C38.1113 8.01777 38.0913 8.11377 38.0513 8.21777C38.0113 8.31377 37.9633 8.37377 37.9073 8.39777C37.7873 8.45377 37.6473 8.48177 37.4873 8.48177C37.4153 8.48177 37.3553 8.46177 37.3073 8.42177C37.2673 8.38177 37.2113 8.31777 37.1393 8.22977C37.0513 8.09377 36.9673 8.01377 36.8873 7.98977C36.7913 7.96577 36.6513 7.93777 36.4673 7.90577C36.2833 7.86577 36.1593 7.84577 36.0953 7.84577C35.9113 7.84577 35.7193 7.89777 35.5193 8.00177C35.3273 8.10577 35.2313 8.22577 35.2313 8.36177C35.2313 8.43377 35.2593 8.48977 35.3153 8.52977C35.3793 8.56977 35.4433 8.60577 35.5073 8.63777C35.5793 8.66977 35.6273 8.68977 35.6513 8.69777C35.8193 8.77777 36.0033 8.84577 36.2033 8.90177C36.4113 8.95777 36.5393 8.99377 36.5873 9.00977C37.0193 9.11377 37.3073 9.21377 37.4513 9.30977ZM39.3151 9.26177C39.3151 8.77377 39.4231 8.36977 39.6391 8.04977C39.8551 7.72177 40.1551 7.41377 40.5391 7.12577C40.6511 7.04577 40.8391 6.97777 41.1031 6.92177C41.3671 6.85777 41.5991 6.82577 41.7991 6.82577C42.0391 6.82577 42.2911 6.87777 42.5551 6.98177C42.8271 7.07777 43.0471 7.18977 43.2151 7.31777C43.5111 7.53377 43.7151 7.78577 43.8271 8.07377C43.9391 8.35377 43.9951 8.68977 43.9951 9.08177C43.9951 9.24977 43.8991 9.41377 43.7071 9.57377C43.5231 9.72577 43.3231 9.80177 43.1071 9.80177L42.6511 9.78977C42.4191 9.78977 42.0871 9.79777 41.6551 9.81377L41.4031 9.82577C41.2271 9.84177 41.0951 9.84977 41.0071 9.84977C40.8791 9.84977 40.7031 9.83377 40.4791 9.80177C40.5111 10.1778 40.6511 10.4738 40.8991 10.6898C41.1471 10.8978 41.4151 11.0018 41.7031 11.0018C42.2071 11.0018 42.5591 10.9018 42.7591 10.7018C42.9271 10.5818 43.0391 10.5058 43.0951 10.4738C43.1511 10.4418 43.2391 10.4258 43.3591 10.4258C43.4871 10.4258 43.5991 10.4858 43.6951 10.6058C43.7911 10.7258 43.8391 10.8458 43.8391 10.9658C43.8391 11.1018 43.7551 11.2418 43.5871 11.3858C43.4271 11.5218 43.2071 11.6658 42.9271 11.8178C42.7751 11.8818 42.5671 11.9378 42.3031 11.9858C42.0391 12.0338 41.8191 12.0578 41.6431 12.0578C41.3631 12.0578 41.0511 11.9778 40.7071 11.8178C40.3631 11.6498 40.1071 11.4658 39.9391 11.2658C39.7711 11.0658 39.6231 10.7818 39.4951 10.4138C39.3751 10.0458 39.3151 9.66177 39.3151 9.26177ZM41.7031 8.93777C42.2711 8.93777 42.6871 8.91777 42.9511 8.87777C42.9351 8.64577 42.8631 8.45777 42.7351 8.31377C42.6071 8.16177 42.4311 8.03377 42.2071 7.92977C42.1351 7.89777 42.0711 7.87377 42.0151 7.85777C41.9591 7.84177 41.8951 7.83377 41.8231 7.83377C41.4551 7.83377 41.1431 7.93377 40.8871 8.13377C40.6391 8.33377 40.4911 8.58977 40.4431 8.90177C40.8431 8.92577 41.2631 8.93777 41.7031 8.93777ZM45.1304 7.83377C45.0184 7.81777 44.9264 7.77377 44.8544 7.70177C44.7904 7.62177 44.7584 7.52577 44.7584 7.41377C44.7584 7.26977 44.8144 7.14977 44.9264 7.05377C44.9504 7.02977 44.9904 7.00977 45.0464 6.99377C45.1024 6.96977 45.1464 6.94977 45.1784 6.93377C45.3544 6.87777 45.4664 6.83377 45.5144 6.80177C45.6984 6.68977 45.8224 6.50577 45.8864 6.24977C45.9504 5.94577 45.9904 5.73777 46.0064 5.62577C46.0224 5.44977 46.0784 5.31777 46.1744 5.22977C46.2784 5.13377 46.4064 5.08577 46.5584 5.08577C46.7584 5.08577 46.8984 5.13777 46.9784 5.24177C47.0584 5.34577 47.0984 5.53777 47.0984 5.81777C47.0984 6.18577 47.0104 6.53377 46.8344 6.86177C46.9464 6.86177 47.1304 6.85377 47.3864 6.83777C47.7704 6.82177 48.0384 6.81377 48.1904 6.81377C48.3264 6.81377 48.4424 6.84977 48.5384 6.92177C48.6424 6.98577 48.6944 7.08177 48.6944 7.20977C48.6944 7.51377 48.5544 7.69377 48.2744 7.74977C48.0184 7.82177 47.5544 7.86577 46.8824 7.88177C46.8264 8.66577 46.7984 9.28577 46.7984 9.74177C46.7984 10.0218 46.8104 10.2218 46.8344 10.3418C46.8824 10.5898 46.9624 10.7738 47.0744 10.8938C47.1944 11.0058 47.3704 11.0618 47.6024 11.0618C47.7144 11.0618 47.8824 11.0338 48.1064 10.9778C48.2424 10.9378 48.3504 10.9178 48.4304 10.9178C48.5344 10.9178 48.6144 10.9538 48.6704 11.0258C48.7264 11.0978 48.7544 11.1938 48.7544 11.3138C48.7544 11.5298 48.6144 11.7098 48.3344 11.8538C48.0544 11.9898 47.7224 12.0578 47.3384 12.0578C47.0984 12.0578 46.8624 12.0018 46.6304 11.8898C46.3984 11.7698 46.2024 11.6258 46.0424 11.4578C46.0104 11.4418 45.9624 11.3538 45.8984 11.1938C45.8424 11.0338 45.7864 10.8578 45.7304 10.6658C45.7064 10.5698 45.6944 10.3378 45.6944 9.96977C45.6944 9.61777 45.7184 9.00977 45.7664 8.14577L45.7784 7.88177C45.7224 7.88177 45.6184 7.87777 45.4664 7.86977C45.3144 7.85377 45.2024 7.84177 45.1304 7.83377ZM49.4867 7.96577C49.4227 7.96577 49.3667 7.94177 49.3187 7.89377C49.2707 7.83777 49.2467 7.77377 49.2467 7.70177C49.2467 7.46977 49.3227 7.29377 49.4747 7.17377C49.6267 7.04577 49.8147 6.98177 50.0387 6.98177C50.3507 6.98177 50.6187 7.06577 50.8427 7.23377C51.0747 7.39377 51.1907 7.62577 51.1907 7.92977C51.1907 8.00977 51.1747 8.31377 51.1427 8.84177C51.1107 9.44977 51.0947 9.85377 51.0947 10.0538C51.0947 10.3338 51.1467 10.5618 51.2507 10.7378C51.3627 10.9058 51.5347 10.9898 51.7667 10.9898C52.2147 10.9898 52.5587 10.7418 52.7987 10.2458C53.0467 9.74177 53.2107 9.12577 53.2907 8.39777C53.3227 8.07777 53.3707 7.74177 53.4347 7.38977C53.4667 7.19777 53.5107 7.05777 53.5667 6.96977C53.6227 6.88177 53.7307 6.83777 53.8907 6.83777C53.9947 6.83777 54.1147 6.86177 54.2507 6.90977C54.3947 6.95777 54.4867 7.02177 54.5267 7.10177C54.5747 7.22177 54.5987 7.35377 54.5987 7.49777C54.5987 7.69777 54.5707 7.95777 54.5147 8.27777C54.4507 8.59777 54.4067 8.94577 54.3827 9.32177C54.3667 9.65777 54.4187 10.0098 54.5387 10.3778C54.6587 10.7458 54.8307 10.9858 55.0547 11.0978C55.3107 11.2258 55.4387 11.3418 55.4387 11.4458C55.4387 11.6138 55.3787 11.7458 55.2587 11.8418C55.1387 11.9378 55.0227 11.9858 54.9107 11.9858C54.6147 11.9858 54.3467 11.8778 54.1067 11.6618C53.8747 11.4458 53.7067 11.1778 53.6027 10.8578C53.4347 11.1138 53.2707 11.3258 53.1107 11.4938C52.9587 11.6538 52.7627 11.7898 52.5227 11.9018C52.2827 12.0058 51.9867 12.0578 51.6347 12.0578C51.2187 12.0578 50.8387 11.9098 50.4947 11.6138C50.1587 11.3178 49.9907 10.8098 49.9907 10.0898C49.9907 9.88977 49.9947 9.67777 50.0027 9.45377C50.0187 9.22977 50.0267 9.06977 50.0267 8.97377C50.0507 8.68577 50.0627 8.42177 50.0627 8.18177C50.0627 8.10977 50.0347 8.04977 49.9787 8.00177C49.9307 7.95377 49.8747 7.92977 49.8107 7.92977C49.7627 7.92977 49.7067 7.93777 49.6427 7.95377C49.5867 7.96177 49.5347 7.96577 49.4867 7.96577ZM56.8147 4.30577C57.0947 4.32977 57.3307 4.39777 57.5227 4.50977C57.7147 4.62177 57.8107 4.80177 57.8107 5.04977C57.8107 5.23377 57.7307 5.38177 57.5707 5.49377C57.4187 5.59777 57.2267 5.64977 56.9947 5.64977C56.7547 5.64977 56.5867 5.59377 56.4907 5.48177C56.4027 5.36977 56.3587 5.25377 56.3587 5.13377C56.3587 4.90177 56.3867 4.70577 56.4427 4.54577C56.4987 4.37777 56.6227 4.29777 56.8147 4.30577ZM57.2107 6.80177C57.4027 6.80177 57.5507 6.85777 57.6547 6.96977C57.7587 7.07377 57.8107 7.18577 57.8107 7.30577L57.7987 9.23777C57.7987 9.66177 57.8027 9.98177 57.8107 10.1978C57.8427 11.1898 57.8587 11.9978 57.8587 12.6218C57.8587 12.9498 57.7867 13.2538 57.6427 13.5338C57.4987 13.8218 57.2947 14.0458 57.0307 14.2058C56.7667 14.3738 56.4707 14.4578 56.1427 14.4578C55.9827 14.4578 55.8307 14.4018 55.6867 14.2898C55.5427 14.1858 55.4707 14.0578 55.4707 13.9058C55.4707 13.8258 55.5027 13.7578 55.5667 13.7018C55.6227 13.6458 55.6827 13.6098 55.7467 13.5938C56.0107 13.5378 56.1987 13.4858 56.3107 13.4378C56.4307 13.3898 56.5267 13.2898 56.5987 13.1378C56.6787 12.9858 56.7187 12.7538 56.7187 12.4418C56.7187 10.6738 56.6747 9.30977 56.5867 8.34977C56.5387 7.86977 56.5147 7.50577 56.5147 7.25777C56.5147 7.14577 56.5707 7.04177 56.6827 6.94577C56.8027 6.84977 56.9787 6.80177 57.2107 6.80177ZM59.0235 7.96577C58.9595 7.96577 58.8995 7.94177 58.8435 7.89377C58.7955 7.83777 58.7715 7.77377 58.7715 7.70177C58.7715 7.51777 58.8515 7.34577 59.0115 7.18577C59.0595 7.16177 59.1555 7.12177 59.2995 7.06577C59.4435 7.00977 59.5715 6.98177 59.6835 6.98177C59.9875 6.98177 60.2355 7.06577 60.4275 7.23377C60.6195 7.39377 60.7155 7.62577 60.7155 7.92977C60.7155 8.01777 60.6995 8.20577 60.6675 8.49377C60.6355 8.82977 60.6195 9.08977 60.6195 9.27377C60.6195 9.83377 60.6955 10.2858 60.8475 10.6298C60.9035 10.7418 60.9915 10.8298 61.1115 10.8938C61.2315 10.9578 61.3395 10.9898 61.4355 10.9898C61.6675 10.9898 61.8555 10.9498 61.9995 10.8698C62.1435 10.7898 62.2995 10.6618 62.4675 10.4858C62.6355 10.3098 62.7435 10.1098 62.7915 9.88577C62.8475 9.66177 62.8875 9.35377 62.9115 8.96177C62.9275 8.70577 62.9435 8.51777 62.9595 8.39777C62.9995 8.01377 63.0195 7.68577 63.0195 7.41377C63.0195 7.23777 63.0675 7.09377 63.1635 6.98177C63.2595 6.86177 63.3915 6.80177 63.5595 6.80177C63.6555 6.80177 63.7635 6.83377 63.8835 6.89777C64.0115 6.95377 64.0955 7.02177 64.1355 7.10177C64.1835 7.18177 64.2075 7.31377 64.2075 7.49777C64.2075 7.59377 64.1955 7.68577 64.1715 7.77377C64.1155 7.97377 64.0875 8.21377 64.0875 8.49377L64.0995 9.11777C64.0995 9.68577 64.1395 10.1058 64.2195 10.3778C64.2595 10.5058 64.3155 10.6378 64.3875 10.7738C64.4595 10.9018 64.5275 11.0098 64.5915 11.0978C64.7515 11.2738 64.8555 11.3978 64.9035 11.4698C64.9515 11.5338 64.9755 11.5978 64.9755 11.6618C64.9755 11.7578 64.9275 11.8498 64.8315 11.9378C64.7435 12.0178 64.6475 12.0578 64.5435 12.0578C64.2475 12.0578 63.9915 11.9578 63.7755 11.7578C63.5595 11.5578 63.3995 11.2978 63.2955 10.9778C63.0235 11.2898 62.7715 11.5418 62.5395 11.7338C62.3795 11.8458 62.1835 11.9298 61.9515 11.9858C61.7195 12.0338 61.4875 12.0578 61.2555 12.0578C60.9435 12.0578 60.6275 11.9298 60.3075 11.6738C59.9875 11.4178 59.7715 11.1218 59.6595 10.7858C59.6515 10.7698 59.6275 10.7058 59.5875 10.5938C59.5555 10.4818 59.5395 10.3138 59.5395 10.0898C59.5395 9.79377 59.5555 9.42177 59.5875 8.97377C59.6115 8.68577 59.6235 8.42177 59.6235 8.18177C59.6235 8.10977 59.5955 8.04977 59.5395 8.00177C59.4915 7.95377 59.4355 7.92977 59.3715 7.92977C59.3235 7.92977 59.2675 7.93777 59.2035 7.95377C59.1475 7.96177 59.0875 7.96577 59.0235 7.96577ZM66.4963 4.30577C66.7763 4.32977 67.0203 4.40577 67.2283 4.53377C67.4363 4.65377 67.5403 4.83777 67.5403 5.08577C67.5403 5.26977 67.4523 5.41777 67.2763 5.52977C67.1083 5.63377 66.9043 5.68577 66.6643 5.68577C66.4323 5.68577 66.2723 5.62577 66.1843 5.50576C66.0963 5.38577 66.0523 5.26177 66.0523 5.13377C66.0523 4.89377 66.0763 4.69377 66.1243 4.53377C66.1803 4.37377 66.3043 4.29777 66.4963 4.30577ZM67.4563 9.62177V9.96977C67.4563 10.2818 67.4643 10.5778 67.4803 10.8578C67.5043 11.1298 67.5323 11.4058 67.5643 11.6858C67.5643 11.7818 67.5083 11.8698 67.3963 11.9498C67.2843 12.0218 67.1803 12.0578 67.0843 12.0578C66.9323 12.0578 66.7763 12.0298 66.6163 11.9738C66.4643 11.9098 66.3723 11.8338 66.3403 11.7458C66.2923 11.4898 66.2683 11.2618 66.2683 11.0618C66.2683 10.4058 66.2483 9.66977 66.2083 8.85377C66.1763 8.13377 66.1603 7.62977 66.1603 7.34177C66.1603 7.19777 66.2323 7.07377 66.3763 6.96977C66.5203 6.86577 66.6723 6.81377 66.8323 6.81377C67.0643 6.81377 67.2243 6.86577 67.3123 6.96977C67.4083 7.07377 67.4563 7.23777 67.4563 7.46177V9.62177Z" fill="white"/>
</svg>
