<svg width="78" height="18" viewBox="0 0 78 18" fill="none" xmlns="http://www.w3.org/2000/svg">
<rect width="78" height="18" rx="4" fill="#6C757D"/>
<path d="M24.8202 4.392C25.9082 4.392 26.7682 4.544 27.4002 4.848C28.0402 5.144 28.5242 5.476 28.8522 5.844C29.1162 6.148 29.3322 6.5 29.5002 6.9C29.6682 7.292 29.7522 7.764 29.7522 8.316C29.7522 8.724 29.6602 9.152 29.4762 9.6C29.2922 10.04 29.0522 10.396 28.7562 10.668C28.4442 10.964 28.1482 11.204 27.8682 11.388C27.5962 11.572 27.2242 11.724 26.7522 11.844C26.2882 11.956 25.6962 12.012 24.9762 12.012C24.4322 12.012 23.9402 11.952 23.5002 11.832C23.0602 11.704 22.8402 11.492 22.8402 11.196C22.8402 11.076 22.8922 10.984 22.9962 10.92C23.1082 10.848 23.2282 10.812 23.3562 10.812C23.4282 10.812 23.4762 10.816 23.5002 10.824C23.5562 10.296 23.5842 9.736 23.5842 9.144C23.5842 8.48 23.5682 7.932 23.5362 7.5C23.5042 7.06 23.4602 6.624 23.4042 6.192C23.3962 6.136 23.3762 5.98 23.3442 5.724C23.3202 5.468 23.3082 5.208 23.3082 4.944C23.3082 4.776 23.3922 4.636 23.5602 4.524C23.7282 4.404 23.9002 4.344 24.0762 4.344C24.1802 4.344 24.3202 4.352 24.4962 4.368C24.6402 4.384 24.7482 4.392 24.8202 4.392ZM24.6642 10.884C24.8562 10.916 25.1082 10.932 25.4202 10.932C25.9482 10.932 26.4482 10.824 26.9202 10.608C27.3922 10.384 27.7722 10.076 28.0602 9.684C28.3482 9.284 28.4922 8.824 28.4922 8.304C28.4922 7.76 28.3962 7.296 28.2042 6.912C28.0122 6.528 27.7162 6.212 27.3162 5.964C27.0202 5.78 26.6562 5.648 26.2242 5.568C25.7922 5.48 25.2722 5.436 24.6642 5.436C24.6642 5.628 24.6762 5.868 24.7002 6.156C24.7002 6.252 24.7082 6.42 24.7242 6.66C24.7722 7.588 24.7962 8.336 24.7962 8.904C24.7962 9.728 24.7522 10.388 24.6642 10.884ZM31.4335 4.296C31.7135 4.32 31.9575 4.396 32.1655 4.524C32.3735 4.644 32.4775 4.828 32.4775 5.076C32.4775 5.26 32.3895 5.408 32.2135 5.52C32.0455 5.624 31.8415 5.676 31.6015 5.676C31.3695 5.676 31.2095 5.616 31.1215 5.496C31.0335 5.376 30.9895 5.252 30.9895 5.124C30.9895 4.884 31.0135 4.684 31.0615 4.524C31.1175 4.364 31.2415 4.288 31.4335 4.296ZM32.3935 9.612V9.96C32.3935 10.272 32.4015 10.568 32.4175 10.848C32.4415 11.12 32.4695 11.396 32.5015 11.676C32.4935 11.756 32.4335 11.84 32.3215 11.928C32.2095 12.008 32.1095 12.048 32.0215 12.048C31.8695 12.048 31.7135 12.02 31.5535 11.964C31.4015 11.9 31.3095 11.824 31.2775 11.736C31.2295 11.48 31.2055 11.252 31.2055 11.052C31.2055 10.396 31.1855 9.66 31.1455 8.844C31.1135 8.124 31.0975 7.62 31.0975 7.332C31.0975 7.188 31.1695 7.064 31.3135 6.96C31.4575 6.856 31.6095 6.804 31.7695 6.804C32.0015 6.804 32.1615 6.856 32.2495 6.96C32.3455 7.064 32.3935 7.228 32.3935 7.452V9.612ZM34.1679 7.824C34.0959 7.824 34.0279 7.832 33.9639 7.848C33.8999 7.856 33.8359 7.86 33.7719 7.86C33.6839 7.86 33.5999 7.82 33.5199 7.74C33.4479 7.66 33.4119 7.588 33.4119 7.524C33.4119 7.316 33.5159 7.156 33.7239 7.044C33.9319 6.924 34.1439 6.864 34.3599 6.864C34.5439 6.864 34.7319 6.928 34.9239 7.056C35.1239 7.176 35.2719 7.332 35.3679 7.524C35.5759 7.276 35.8319 7.096 36.1359 6.984C36.4399 6.872 36.7559 6.816 37.0839 6.816C37.4519 6.816 37.7919 6.932 38.1039 7.164C38.4239 7.396 38.6759 7.692 38.8599 8.052C39.0439 8.404 39.1359 8.756 39.1359 9.108C39.1359 9.452 39.0999 9.76 39.0279 10.032C38.9559 10.296 38.8279 10.564 38.6439 10.836C38.4359 11.124 38.1559 11.36 37.8039 11.544C37.4599 11.728 37.0479 11.82 36.5679 11.82C36.4399 11.82 36.2839 11.788 36.0999 11.724C35.9159 11.652 35.7639 11.576 35.6439 11.496C35.5879 12.04 35.5599 12.512 35.5599 12.912C35.5599 13.152 35.5719 13.38 35.5959 13.596C35.6119 13.852 35.6199 14.036 35.6199 14.148C35.6199 14.324 35.5599 14.452 35.4399 14.532C35.3199 14.62 35.1879 14.664 35.0439 14.664C34.7559 14.664 34.5639 14.584 34.4679 14.424C34.3799 14.272 34.3359 14.052 34.3359 13.764C34.3679 13.076 34.4079 12.44 34.4559 11.856C34.5039 11.136 34.5279 10.024 34.5279 8.52C34.5279 8.376 34.4999 8.224 34.4439 8.064C34.3879 7.904 34.2959 7.824 34.1679 7.824ZM35.6919 10.308C35.7319 10.46 35.8439 10.588 36.0279 10.692C36.2199 10.788 36.3919 10.836 36.5439 10.836C36.9999 10.836 37.3399 10.712 37.5639 10.464C37.7319 10.288 37.8399 10.116 37.8879 9.948C37.9439 9.78 37.9719 9.512 37.9719 9.144C37.9719 8.856 37.9159 8.616 37.8039 8.424C37.6919 8.224 37.5559 8.08 37.3959 7.992C37.2359 7.896 37.0839 7.848 36.9399 7.848C36.6119 7.848 36.3439 7.948 36.1359 8.148C35.9359 8.34 35.8079 8.604 35.7519 8.94C35.7119 9.204 35.6919 9.66 35.6919 10.308ZM40.2914 7.788C40.0834 7.644 39.9794 7.492 39.9794 7.332C39.9794 7.22 40.0274 7.116 40.1234 7.02C40.2194 6.924 40.3634 6.876 40.5554 6.876C40.7794 6.876 40.9794 6.936 41.1554 7.056C41.3394 7.168 41.4674 7.332 41.5394 7.548C41.7234 7.332 41.9314 7.16 42.1634 7.032C42.4034 6.904 42.6474 6.84 42.8954 6.84C43.1914 6.84 43.4594 6.92 43.6994 7.08C43.9394 7.24 44.0594 7.456 44.0594 7.728C44.0594 7.88 43.9914 8.036 43.8554 8.196C43.7274 8.356 43.5954 8.436 43.4594 8.436C43.3874 8.436 43.3234 8.42 43.2674 8.388C43.2194 8.348 43.1594 8.292 43.0874 8.22C43.0074 8.14 42.9394 8.084 42.8834 8.052C42.8274 8.012 42.7634 7.992 42.6914 7.992C42.5634 7.992 42.4434 8.012 42.3314 8.052C42.2194 8.092 42.1434 8.14 42.1034 8.196C41.9754 8.396 41.8794 8.576 41.8154 8.736C41.7594 8.896 41.7314 9.068 41.7314 9.252C41.7314 9.388 41.7274 9.496 41.7194 9.576L41.7074 10.26C41.7074 10.364 41.7114 10.48 41.7194 10.608C41.7274 10.736 41.7354 10.832 41.7434 10.896C41.7674 11.112 41.7794 11.32 41.7794 11.52C41.7794 11.656 41.7274 11.776 41.6234 11.88C41.5194 11.984 41.3914 12.036 41.2394 12.036C40.9994 12.036 40.8234 11.992 40.7114 11.904C40.5994 11.808 40.5434 11.636 40.5434 11.388L40.5314 10.62C40.5234 10.468 40.5194 10.252 40.5194 9.972L40.5314 9.18C40.5474 8.796 40.5554 8.484 40.5554 8.244C40.5554 8.156 40.5354 8.076 40.4954 8.004C40.4634 7.932 40.3954 7.86 40.2914 7.788ZM49.4949 8.148C49.5589 8.26 49.6109 8.424 49.6509 8.64C49.6909 8.848 49.7109 9.036 49.7109 9.204C49.7109 9.42 49.6869 9.66 49.6389 9.924C49.5909 10.188 49.5469 10.392 49.5069 10.536C48.9549 11.544 48.1389 12.048 47.0589 12.048C46.6589 12.048 46.2509 11.916 45.8349 11.652C45.4189 11.388 45.1309 11.084 44.9709 10.74C44.7549 10.06 44.6469 9.624 44.6469 9.432C44.6469 9.112 44.7149 8.772 44.8509 8.412C44.9949 8.052 45.1749 7.74 45.3909 7.476C45.5349 7.292 45.7829 7.136 46.1349 7.008C46.4869 6.872 46.8069 6.804 47.0949 6.804C47.6549 6.804 48.1269 6.912 48.5109 7.128C48.9029 7.336 49.2309 7.676 49.4949 8.148ZM48.4509 10.08C48.4909 10 48.5109 9.732 48.5109 9.276C48.5109 9.044 48.4669 8.816 48.3789 8.592C48.2989 8.368 48.1789 8.176 48.0189 8.016C48.0029 8 47.9589 7.976 47.8869 7.944C47.8149 7.904 47.7149 7.868 47.5869 7.836C47.4669 7.796 47.3269 7.776 47.1669 7.776C46.7189 7.776 46.3909 7.956 46.1829 8.316C45.9749 8.676 45.8709 9.084 45.8709 9.54C45.8709 9.612 45.8949 9.76 45.9429 9.984C45.9909 10.208 46.0269 10.352 46.0509 10.416C46.1149 10.528 46.2429 10.66 46.4349 10.812C46.6349 10.956 46.8509 11.028 47.0829 11.028C47.4429 11.028 47.7269 10.944 47.9349 10.776C48.1509 10.6 48.3229 10.368 48.4509 10.08ZM54.2686 9.252C54.5886 9.436 54.8126 9.62 54.9406 9.804C55.0686 9.98 55.1326 10.212 55.1326 10.5C55.1326 10.788 55.0486 11.044 54.8806 11.268C54.7126 11.484 54.4966 11.652 54.2326 11.772C54.0406 11.86 53.8006 11.928 53.5126 11.976C53.2326 12.024 53.0126 12.048 52.8526 12.048C52.5726 12.048 52.2686 11.996 51.9406 11.892C51.6126 11.788 51.3326 11.64 51.1006 11.448C50.8766 11.256 50.7646 11.032 50.7646 10.776C50.7646 10.616 50.8166 10.492 50.9206 10.404C51.0246 10.308 51.1606 10.26 51.3286 10.26C51.4646 10.26 51.6086 10.356 51.7606 10.548C51.9126 10.716 52.0886 10.844 52.2886 10.932C52.4966 11.02 52.7006 11.064 52.9006 11.064C53.6606 11.064 54.0406 10.892 54.0406 10.548C54.0406 10.476 54.0166 10.408 53.9686 10.344C53.9206 10.272 53.8766 10.224 53.8366 10.2C53.7646 10.144 53.6646 10.096 53.5366 10.056C53.4086 10.016 53.2806 9.984 53.1526 9.96C53.0246 9.928 52.9286 9.904 52.8646 9.888C52.8006 9.872 52.6646 9.844 52.4566 9.804C52.2566 9.764 52.0646 9.696 51.8806 9.6C51.5766 9.456 51.3286 9.28 51.1366 9.072C50.9526 8.864 50.8606 8.596 50.8606 8.268C50.8606 8.084 50.9046 7.9 50.9926 7.716C51.0886 7.524 51.2166 7.38 51.3766 7.284C51.6166 7.132 51.8806 7.016 52.1686 6.936C52.4566 6.856 52.7246 6.816 52.9726 6.816C53.1726 6.816 53.3966 6.836 53.6446 6.876C53.9006 6.916 54.0846 6.972 54.1966 7.044C54.4046 7.156 54.5566 7.272 54.6526 7.392C54.7486 7.512 54.7966 7.664 54.7966 7.848C54.7966 7.936 54.7766 8.024 54.7366 8.112C54.6966 8.192 54.6486 8.248 54.5926 8.28C54.4646 8.328 54.3526 8.352 54.2566 8.352C54.1846 8.352 54.1246 8.34 54.0766 8.316C54.0286 8.284 53.9846 8.252 53.9446 8.22C53.9126 8.188 53.8926 8.168 53.8846 8.16C53.7806 8.048 53.6646 7.96 53.5366 7.896C53.4086 7.832 53.2206 7.8 52.9726 7.8C52.8126 7.8 52.6566 7.824 52.5046 7.872C52.3606 7.912 52.2486 7.964 52.1686 8.028C52.1046 8.076 52.0606 8.12 52.0366 8.16C52.0126 8.192 52.0006 8.236 52.0006 8.292C52.0006 8.516 52.2246 8.68 52.6726 8.784C53.1286 8.888 53.3686 8.944 53.3926 8.952C53.4406 8.968 53.5726 9.008 53.7886 9.072C54.0126 9.136 54.1726 9.196 54.2686 9.252ZM56.167 9.288C56.167 9 56.219 8.732 56.323 8.484C56.427 8.228 56.579 7.964 56.779 7.692C56.979 7.42 57.255 7.208 57.607 7.056C57.959 6.896 58.343 6.816 58.759 6.816C59.079 6.816 59.387 6.884 59.683 7.02C59.987 7.148 60.259 7.308 60.499 7.5C60.531 7.556 60.587 7.66 60.667 7.812C60.747 7.956 60.803 8.088 60.835 8.208C60.875 8.328 60.895 8.452 60.895 8.58C60.895 9.116 60.699 9.476 60.307 9.66C59.915 9.836 59.419 9.924 58.819 9.924C58.219 9.924 57.731 9.884 57.355 9.804C57.371 9.956 57.411 10.108 57.475 10.26C57.539 10.412 57.615 10.528 57.703 10.608C57.863 10.76 58.019 10.86 58.171 10.908C58.331 10.948 58.543 10.968 58.807 10.968C59.207 10.968 59.519 10.892 59.743 10.74C59.951 10.604 60.111 10.536 60.223 10.536C60.375 10.536 60.491 10.584 60.571 10.68C60.651 10.768 60.691 10.884 60.691 11.028C60.691 11.332 60.495 11.58 60.103 11.772C59.719 11.964 59.283 12.06 58.795 12.06C58.411 12.06 58.031 11.992 57.655 11.856C57.279 11.72 56.979 11.528 56.755 11.28C56.603 11.024 56.467 10.712 56.347 10.344C56.227 9.976 56.167 9.624 56.167 9.288ZM58.807 7.8C58.631 7.8 58.447 7.832 58.255 7.896C58.071 7.952 57.927 8.04 57.823 8.16C57.695 8.296 57.599 8.42 57.535 8.532C57.479 8.644 57.443 8.784 57.427 8.952C57.515 8.952 57.599 8.956 57.679 8.964C57.759 8.972 57.835 8.98 57.907 8.988C58.259 9.02 58.523 9.036 58.699 9.036C59.051 9.036 59.319 8.984 59.503 8.88C59.695 8.776 59.791 8.636 59.791 8.46C59.791 8.292 59.683 8.14 59.467 8.004C59.259 7.868 59.039 7.8 58.807 7.8ZM65.412 9.3C65.476 9.34 65.6 9.416 65.784 9.528C65.976 9.632 66.104 9.756 66.168 9.9C66.232 10.044 66.264 10.244 66.264 10.5C66.264 10.788 66.18 11.044 66.012 11.268C65.844 11.484 65.628 11.652 65.364 11.772C65.172 11.86 64.936 11.928 64.656 11.976C64.384 12.024 64.168 12.048 64.008 12.048C63.848 12.048 63.64 12.024 63.384 11.976C63.136 11.928 62.964 11.884 62.868 11.844C62.62 11.7 62.404 11.524 62.22 11.316C62.044 11.108 61.956 10.896 61.956 10.68C61.956 10.52 62.008 10.396 62.112 10.308C62.216 10.212 62.352 10.164 62.52 10.164C62.6 10.164 62.684 10.196 62.772 10.26C62.86 10.316 62.92 10.376 62.952 10.44C63.04 10.648 63.188 10.804 63.396 10.908C63.604 11.012 63.816 11.064 64.032 11.064C64.312 11.064 64.572 11.02 64.812 10.932C65.052 10.836 65.172 10.708 65.172 10.548C65.172 10.476 65.152 10.42 65.112 10.38C65.08 10.332 65.032 10.284 64.968 10.236C64.856 10.156 64.688 10.092 64.464 10.044C64.24 9.988 64.096 9.952 64.032 9.936C63.704 9.864 63.384 9.756 63.072 9.612C62.76 9.46 62.512 9.28 62.328 9.072C62.144 8.864 62.052 8.596 62.052 8.268C62.052 8.052 62.132 7.828 62.292 7.596C62.452 7.356 62.632 7.188 62.832 7.092C62.976 7.036 63.216 6.976 63.552 6.912C63.896 6.848 64.128 6.816 64.248 6.816C64.432 6.816 64.632 6.836 64.848 6.876C65.064 6.908 65.228 6.964 65.34 7.044C65.556 7.172 65.732 7.308 65.868 7.452C66.004 7.588 66.072 7.744 66.072 7.92C66.072 8.008 66.052 8.104 66.012 8.208C65.972 8.304 65.924 8.364 65.868 8.388C65.748 8.444 65.608 8.472 65.448 8.472C65.376 8.472 65.316 8.452 65.268 8.412C65.228 8.372 65.172 8.308 65.1 8.22C65.012 8.084 64.928 8.004 64.848 7.98C64.752 7.956 64.612 7.928 64.428 7.896C64.244 7.856 64.12 7.836 64.056 7.836C63.872 7.836 63.68 7.888 63.48 7.992C63.288 8.096 63.192 8.216 63.192 8.352C63.192 8.424 63.22 8.48 63.276 8.52C63.34 8.56 63.404 8.596 63.468 8.628C63.54 8.66 63.588 8.68 63.612 8.688C63.78 8.768 63.964 8.836 64.164 8.892C64.372 8.948 64.5 8.984 64.548 9C64.98 9.104 65.268 9.204 65.412 9.3Z" fill="white"/>
<path d="M10.1738 2.6875C13.3847 2.6875 15.9863 5.28906 15.9863 8.5C15.9863 11.7109 13.3847 14.3125 10.1738 14.3125C6.96287 14.3125 4.36131 11.7109 4.36131 8.5C4.36131 5.28906 6.96287 2.6875 10.1738 2.6875ZM12.3301 10.0234C12.3769 9.97656 12.4238 9.88281 12.4238 9.78906C12.4238 9.67188 12.3535 9.57812 12.2832 9.50781L10.9238 8.5V5.125C10.9238 4.9375 10.7363 4.75 10.5488 4.75H9.79881C9.58787 4.75 9.42381 4.9375 9.42381 5.125V8.78125C9.42381 9.08594 9.541 9.34375 9.77537 9.50781L11.3457 10.6797C11.3926 10.7266 11.4863 10.7734 11.5566 10.7734C11.6972 10.7734 11.791 10.7031 11.8613 10.6094L12.3301 10.0234Z" fill="white"/>
</svg>
